<?xml version="1.0" encoding="UTF-8" standalone="no"?>
<svg width="66px" height="102px" viewBox="0 0 66 102" version="1.1" xmlns="http://www.w3.org/2000/svg" xmlns:xlink="http://www.w3.org/1999/xlink" xmlns:sketch="http://www.bohemiancoding.com/sketch/ns">
    <!-- Generator: Sketch 3.3.3 (12072) - http://www.bohemiancoding.com/sketch -->
    <title>Q42_logo_RGB</title>
    <desc>Created with Sketch.</desc>
    <defs></defs>
    <g id="Page-1" stroke="none" stroke-width="1" fill="none" fill-rule="evenodd" sketch:type="MSPage">
        <g id="Desktop-Copy-2" sketch:type="MSArtboardGroup" transform="translate(-479.000000, -44.000000)">
            <g id="Q42_logo_RGB" sketch:type="MSLayerGroup" transform="translate(479.000000, 44.000000)">
                <g id="Group-3" fill="#80BD42" sketch:type="MSShapeGroup">
                    <path d="M33.9715528,102 C31.6951677,92.6637097 29.1572422,85.2403306 26.3618758,79.7269839 C23.5665093,74.2140484 19.3433292,68.2639113 13.6931553,61.8790403 L11.2523851,59.1612339 C3.88621118,50.9181532 0.136509317,42.6174919 0.00491925466,34.262129 C-0.140608696,25.0307177 2.96344099,17.0586774 9.31706832,10.3455968 C15.6706957,3.62840323 23.3537516,0.201532258 32.3625466,0.0584032258 C41.3262484,-0.0839032258 49.0892422,3.09783871 55.651528,9.60856452 C62.2138137,16.1172339 65.5675155,23.9864516 65.7134534,33.2178629 C65.8454534,41.5740484 62.3597516,49.9894597 55.2571677,58.4624516 L52.9041242,61.2563468 C47.4601491,67.81725 43.4275901,73.899 40.807677,79.4978952 C38.1869441,85.096379 35.9085093,92.5966694 33.9715528,102" id="Fill-1"></path>
                </g>
                <path d="M48.0664472,35.6235 L44.5856646,33.1158629 C46.5492671,31.2185806 47.9323975,28.4399032 47.9323975,24.4409274 C47.9323975,13.0210403 36.7788075,11.6321129 32.5400497,11.6321129 C28.3017019,11.6321129 17.1485217,13.0210403 17.1485217,24.4409274 C17.1485217,35.8608145 28.3017019,37.2497419 32.5400497,37.2497419 C34.4138758,37.2497419 37.7151056,36.9791129 40.7494658,35.6235 L44.5418012,38.3680403 L48.0664472,35.6235 L48.0664472,35.6235 Z M32.9417888,29.9986935 L36.154472,32.3027419 C34.9496646,32.777371 33.6559006,32.9464113 32.5400497,32.9464113 C28.9268571,32.9464113 23.8411677,31.2523065 23.8411677,24.4409274 C23.8411677,17.6299597 28.9268571,15.9358548 32.5400497,15.9358548 C36.154472,15.9358548 41.2409814,17.6299597 41.2409814,24.4409274 C41.2409814,26.7116613 40.6600994,28.4057661 39.7680745,29.659379 L36.3770683,27.2541532 L32.9417888,29.9986935 L32.9417888,29.9986935 Z" id="Fill-4" fill="#FFFFFF" sketch:type="MSShapeGroup"></path>
                <path d="M31.6681118,51.7687016 L29.258087,51.7687016 L29.258087,42.5010968 L24.4097516,42.5010968 L16.4491677,51.5178145 L16.4491677,54.0435484 L24.9889938,54.0435484 L24.9889938,57.3207097 L29.258087,57.3207097 L29.258087,54.0435484 L31.6681118,54.0435484 L31.6681118,51.7687016 L31.6681118,51.7687016 Z M19.5905217,51.7687016 L25.0193292,45.4023387 L25.08,45.4023387 C25.08,45.8613387 24.9889938,48.1785484 24.9889938,51.7687016 L19.5905217,51.7687016 L19.5905217,51.7687016 Z" id="Fill-5" fill="#FFFFFF" sketch:type="MSShapeGroup"></path>
                <path d="M33.9076025,47.6533306 C33.9076025,42.8317742 39.0617516,42.4147258 40.9831304,42.4147258 C45.130472,42.4147258 48.424323,44.0841532 48.424323,47.0894516 C48.424323,49.6365726 46.015118,50.9309032 43.9104969,51.9114194 C41.0438012,53.2888306 39.5491677,53.9575887 39.0617516,54.6456774 L48.4550683,54.6456774 L48.4550683,57.23475 L33.6640994,57.23475 C33.8149565,55.5015726 33.9990186,53.6853145 38.696087,51.3475403 C42.5995155,49.4070726 44.1552298,48.6548226 44.1552298,46.9858065 C44.1552298,46.0044677 43.2398385,44.8775323 41.1659627,44.8775323 C38.1766957,44.8775323 38.0848696,46.5679355 38.055354,47.6533306 L33.9076025,47.6533306" id="Fill-6" fill="#FFFFFF" sketch:type="MSShapeGroup"></path>
            </g>
        </g>
    </g>
</svg>
