<svg xmlns="http://www.w3.org/2000/svg" height="102" width="66" version="1.1" viewBox="0 0 66 102"><title>Q42_logo_RGB</title><desc>Created with Sketch.</desc><g fill-rule="evenodd" fill="none"><g transform="translate(-479 -44)"><g transform="translate(479 44)"><g fill="#80BD42"><path d="m33.97 102c-2.28-9.34-4.82-16.76-7.61-22.27s-7.02-11.46-12.67-17.85l-2.44-2.72c-7.37-8.24-11.11-16.54-11.25-24.9-0.15-9.23 2.96-17.2 9.31-23.92 6.35-6.72 14.04-10.14 23.05-10.29 8.96-0.14 16.73 3.04 23.29 9.55 6.56 6.51 9.92 14.38 10.06 23.61 0.13 8.36-3.35 16.77-10.46 25.24l-2.35 2.79c-5.44 6.56-9.48 12.64-12.1 18.24-2.62 5.6-4.9 13.1-6.84 22.5"/></g><path fill="#fff" d="m48.07 35.62l-3.48-2.51c1.96-1.9 3.35-4.68 3.35-8.68 0-11.42-11.15-12.81-15.39-12.81-4.24 0-15.39 1.39-15.39 12.81s11.15 12.81 15.39 12.81c1.87 0 5.18-0.27 8.21-1.63l3.79 2.74 3.52-2.74zm-15.12-5.62l3.21 2.3c-1.2 0.47-2.5 0.64-3.61 0.64-3.61 0-8.7-1.69-8.7-8.51s5.09-8.51 8.7-8.51c3.61 0 8.7 1.69 8.7 8.51 0 2.27-0.58 3.97-1.47 5.22l-3.39-2.4-3.43 2.75zM31.67 51.77 31.67 51.77h-2.41v-9.27h-4.85l-7.96 9.02v2.53h8.54v3.28h4.27v-3.28h2.41v-2.27zm-12.08 0l5.43-6.37h0.06c0 0.46-0.09 2.78-0.09 6.37h-5.4zM33.91 47.65c0-4.82 5.15-5.24 7.08-5.24 4.15 0 7.44 1.67 7.44 4.67 0 2.55-2.41 3.84-4.51 4.82-2.87 1.38-4.36 2.05-4.85 2.74h9.39v2.59h-14.79c0.15-1.73 0.34-3.55 5.03-5.89 3.9-1.94 5.46-2.69 5.46-4.36 0-0.98-0.91-2.11-2.99-2.11-2.99 0-3.08 1.69-3.11 2.78h-4.15"/></g></g></g></svg>