<svg xmlns="http://www.w3.org/2000/svg" version="1.1" viewBox="0 0 202.58 283.09"><defs><path d="m64.91 81.43c0-27.77 27.21-31.14 37.55-31.14 10.34 0 37.55 3.38 37.55 31.14 0 9.72-3.37 16.48-8.16 21.09l8.49 6.1-8.6 6.67-9.25-6.67c-7.4 3.3-15.45 3.95-20.03 3.95-10.34 0-37.54-3.38-37.54-31.14zm37.55-20.68c-8.81 0-21.22 4.12-21.22 20.68s12.41 20.68 21.22 20.68c2.72 0 5.88-0.41 8.82-1.56l-7.84-5.6 8.38-6.67 8.27 5.85c2.18-3.05 3.59-7.17 3.59-12.69 0.01-16.56-12.4-20.68-21.22-20.68zM100.32 153.4h-5.88v7.97h-10.41v-7.97h-20.83v-6.14l19.42-21.92h11.83v22.53h5.88v5.53zm-29.46-5.53h13.17c0-8.73 0.22-14.36 0.22-15.48h-0.15l-13.24 15.48zM141.27 161.16h-36.08c0.37-4.21 0.82-8.63 12.28-14.31 9.52-4.72 13.32-6.55 13.32-10.61 0-2.39-2.23-5.13-7.29-5.13-7.29 0-7.52 4.11-7.59 6.75h-10.12c0-11.72 12.57-12.74 17.26-12.74 10.12 0 18.15 4.06 18.15 11.37 0 6.19-5.88 9.34-11.01 11.73-6.99 3.35-10.64 4.97-11.83 6.65h22.91v6.29zM158.83 45.36c-16.01-15.83-34.94-23.57-56.81-23.22-21.98 0.35-40.72 8.68-56.22 25.01-15.5 16.32-23.07 35.71-22.72 58.15 0.32 20.31 9.47 40.5 27.44 60.54l5.95 6.61c13.78 15.52 24.09 29.99 30.9 43.4 6.82 13.4 13.01 31.45 18.56 54.15 4.72-22.86 10.28-41.1 16.68-54.71 6.39-13.61 16.23-28.4 29.51-44.35l5.74-6.79c17.33-20.6 25.83-41.06 25.51-61.38-0.36-22.46-8.54-41.59-24.55-57.42z"/><mask><use fill="#FFFFFF"/></mask></defs><rect mask="url(#logo)" height="283.09" width="202.58" y="0" x="0" fill="#fff"/></svg>