<?xml version="1.0" encoding="utf-8"?>
<!DOCTYPE svg PUBLIC "-//W3C//DTD SVG 1.1//EN" "http://www.w3.org/Graphics/SVG/1.1/DTD/svg11.dtd">
<svg version="1.1" xmlns="http://www.w3.org/2000/svg" viewBox="0 0 202.584 283.093">
	<g id="Ballon"></g>
	<g id="Q42_Tekst">
		<path fill="#FFFFFF" d="M70.862,147.871h13.169c0-8.728,0.222-14.362,0.222-15.478h-0.147L70.862,147.871z"/>
		<path fill="#FFFFFF" d="M102.451,60.748c-8.814,0-21.22,4.119-21.22,20.68c0,16.561,12.406,20.68,21.22,20.68
			c2.722,0,5.878-0.411,8.817-1.565l-7.837-5.602l8.38-6.673l8.271,5.848c2.176-3.048,3.593-7.167,3.593-12.688
			C123.675,64.867,111.268,60.748,102.451,60.748z"/>
		<path fill="#FFFFFF" d="M158.828,45.364c-16.008-15.831-34.945-23.567-56.811-23.22c-21.976,0.348-40.719,8.68-56.218,25.011
			c-15.499,16.323-23.07,35.706-22.716,58.151c0.321,20.314,9.469,40.497,27.437,60.539l5.954,6.607
			c13.782,15.524,24.085,29.991,30.903,43.396c6.819,13.404,13.011,31.454,18.563,54.153c4.725-22.862,10.283-41.099,16.676-54.711
			c6.391-13.612,16.228-28.399,29.508-44.352l5.74-6.793c17.326-20.602,25.829-41.063,25.507-61.379
			C183.018,80.322,174.836,61.189,158.828,45.364z M100.324,153.402h-5.879v7.968H84.031v-7.968H63.199v-6.141l19.419-21.924h11.827
			v22.533h5.879V153.402z M64.905,81.427c0-27.766,27.207-31.143,37.546-31.143c10.34,0,37.548,3.377,37.548,31.143
			c0,9.723-3.374,16.479-8.164,21.092l8.491,6.097l-8.598,6.673l-9.251-6.673c-7.402,3.296-15.455,3.954-20.026,3.954
			C92.112,112.57,64.905,109.193,64.905,81.427z M141.274,161.16h-36.081c0.368-4.214,0.817-8.63,12.275-14.313
			c9.522-4.719,13.317-6.547,13.317-10.606c0-2.386-2.232-5.126-7.292-5.126c-7.292,0-7.516,4.11-7.588,6.749h-10.118
			c0-11.723,12.573-12.737,17.26-12.737c10.117,0,18.152,4.06,18.152,11.366c0,6.193-5.877,9.34-11.011,11.725
			c-6.993,3.349-10.64,4.975-11.828,6.647h22.914V161.16z"/>
	</g>
</svg>